<?xml version="1.0" standalone="no"?>
<!DOCTYPE svg PUBLIC "-//W3C//DTD SVG 1.1//EN" "http://www.w3.org/Graphics/SVG/1.1/DTD/svg11.dtd" >
<svg xmlns="http://www.w3.org/2000/svg">
<metadata>Generated by IcoMoon</metadata>
<defs>
<font id="icomoon" horiz-adv-x="1024">
<font-face units-per-em="1024" ascent="960" descent="-64" />
<missing-glyph horiz-adv-x="1024" />
<glyph unicode="&#x20;" horiz-adv-x="512" d="" />
<glyph unicode="&#xe900;" glyph-name="arrow-right" horiz-adv-x="1103" d="M648.645-31.287c-30.24-24.853-74.963-23.876-104.115 3.741-31.581 29.919-32.929 79.775-3.010 111.356v0l233.18 246.016-646.182 0.020c-43.503 0-78.769 35.266-78.769 78.769 0 40.396 30.408 73.689 69.583 78.239l9.186 0.53 674.382-0.020-261.38 275.791-6.35 7.595c-23.183 31.538-19.792 76.143 9.359 103.761 31.581 29.919 81.437 28.572 111.356-3.010v0l424.439-448.019-424.439-448.019z" />
<glyph unicode="&#xe901;" glyph-name="cross-icon" d="M819.898 929.974c39.992 39.988 104.828 39.985 144.815-0.007 32.217-32.22 38.835-81.187 15.974-123.108l-6.968-11.241-9.017-10.472-322.581-322.438 322.616-322.592c36.915-36.912 39.758-94.996 8.525-135.168l-8.518-9.647c-32.217-32.22-81.183-38.842-123.106-15.986l-11.241 6.967-10.465 9.008-322.604 322.624-322.552-322.621c-36.915-36.912-95-39.749-135.169-8.512l-9.646 8.519c-32.217 32.22-38.835 81.187-15.974 123.108l6.968 11.241 9.004 10.458 322.474 322.601-322.435 322.443c-36.915 36.912-39.758 94.996-8.525 135.168l8.518 9.647c32.217 32.22 81.183 38.842 123.106 15.986l11.241-6.967 10.467-9.010 322.524-322.473 322.571 322.472z" />
<glyph unicode="&#xe902;" d="M512 960c-282.624 0-512-229.376-512-512s229.376-512 512-512c282.624 0 512 229.376 512 512s-229.376 512-512 512z" />
<glyph unicode="&#xe903;" d="M550.4 192h-102.4v307.2h102.4z" />
<glyph unicode="&#xe904;" d="M550.4 601.6h-102.4v102.4h102.4z" />
<glyph unicode="&#xe905;" glyph-name="check-icon" horiz-adv-x="1280" d="M1061.49 922.51l181.019-181.019-794.51-794.51-410.51 410.51 181.019 181.019 229.49-229.39z" />
<glyph unicode="&#xe906;" glyph-name="dash" horiz-adv-x="2731" d="M2560 789.333c94.257 0 170.667-152.82 170.667-341.333 0-175.048-65.884-319.32-150.763-339.037l-19.903-2.296h-2389.333c-94.257 0-170.667 152.82-170.667 341.333 0 175.048 65.884 319.32 150.763 339.037l19.903 2.296h2389.333z" />
<glyph unicode="&#xe907;" glyph-name="plus" d="M512 960c40.396 0 73.143-32.747 73.143-73.143l-0.073-365.714h365.787c40.396 0 73.143-32.747 73.143-73.143s-32.747-73.143-73.143-73.143h-365.787l0.073-365.714c0-40.396-32.747-73.143-73.143-73.143s-73.143 32.747-73.143 73.143l-0.073 365.714h-365.641c-40.396 0-73.143 32.747-73.143 73.143s32.747 73.143 73.143 73.143h365.641l0.073 365.714c0 40.396 32.747 73.143 73.143 73.143z" />
<glyph unicode="&#xe908;" horiz-adv-x="2048" d="M512 960h1024c282.77 0 512-229.23 512-512s-229.23-512-512-512h-1024c-282.77 0-512 229.23-512 512s229.23 512 512 512z" />
<glyph unicode="&#xe909;" horiz-adv-x="2048" d="M512 618.667c94.257 0 170.667-76.41 170.667-170.667s-76.41-170.667-170.667-170.667c-94.257 0-170.667 76.41-170.667 170.667s76.41 170.667 170.667 170.667zM1024 618.667c94.257 0 170.667-76.41 170.667-170.667s-76.41-170.667-170.667-170.667c-94.257 0-170.667 76.41-170.667 170.667s76.41 170.667 170.667 170.667zM1536 618.667c94.257 0 170.667-76.41 170.667-170.667s-76.41-170.667-170.667-170.667c-94.257 0-170.667 76.41-170.667 170.667s76.41 170.667 170.667 170.667z" />
<glyph unicode="&#xe90a;" glyph-name="arrow-left" horiz-adv-x="1195" d="M467.654 940.667c32.76 26.924 81.21 25.866 112.791-4.053 34.213-32.412 35.673-86.423 3.26-120.636v0l-252.612-266.518 700.031-0.022c47.128 0 85.333-38.205 85.333-85.333 0-43.762-32.942-79.83-75.382-84.759l-9.952-0.574-730.58 0.022 283.161-298.774 6.879-8.228c25.115-34.167 21.442-82.489-10.139-112.408-34.213-32.412-88.223-30.952-120.636 3.26v0l-459.809 485.354 459.809 485.354 7.844 7.313z" />
<glyph unicode="&#xe90b;" glyph-name="hamburger" horiz-adv-x="1260" d="M1181.538 920.615c43.503 0 78.769-35.266 78.769-78.769 0-40.396-30.408-73.689-69.583-78.239l-9.186-0.53h-1102.769c-43.503 0-78.769 35.266-78.769 78.769 0 40.396 30.408 73.689 69.583 78.239l9.186 0.53h1102.769zM1181.538 526.769c43.503 0 78.769-35.266 78.769-78.769 0-40.396-30.408-73.689-69.583-78.239l-9.186-0.53h-1102.769c-43.503 0-78.769 35.266-78.769 78.769 0 40.396 30.408 73.689 69.583 78.239l9.186 0.53h1102.769zM1181.538 132.923c43.503 0 78.769-35.266 78.769-78.769 0-40.396-30.408-73.689-69.583-78.239l-9.186-0.53h-1102.769c-43.503 0-78.769 35.266-78.769 78.769 0 40.396 30.408 73.689 69.583 78.239l9.186 0.53h1102.769z" />
<glyph unicode="&#xe90c;" glyph-name="upload" horiz-adv-x="1280" d="M665.6 499.2c26.257 0 47.898-19.765 50.856-45.229l0.344-5.971v-460.8c0-28.277-22.923-51.2-51.2-51.2-26.257 0-47.898 19.765-50.856 45.229l-0.344 5.971v460.8c0 28.277 22.923 51.2 51.2 51.2zM103.079 712.014c88.146 169.16 271.405 266.525 460.922 244.886 174.939-19.974 321.825-137.536 380.941-300.757l1.131-3.342h26.76c136.147-0.090 255.435-89.676 294.117-219.17l3.388-12.255c34.632-136.063-27.391-278.292-150.664-345.496-24.827-13.535-55.926-4.381-69.461 20.446s-4.381 55.926 20.446 69.461c82.182 44.803 123.53 139.622 100.442 230.331-22.233 87.349-98.768 149.48-187.958 154.017l-10.345 0.266h-64.512c-23.341 0-43.728 15.786-49.57 38.384-37.136 143.637-158.931 249.546-306.333 266.376s-289.937-58.898-358.495-190.467c-68.558-131.569-48.966-291.778 49.276-402.949 18.725-21.189 16.727-53.545-4.462-72.27s-53.545-16.727-72.27 4.462c-126.312 142.934-151.502 348.918-63.355 518.078zM629.396 484.204c18.457 18.457 47.499 19.877 67.584 4.259l4.823-4.259 204.8-204.8c19.995-19.995 19.995-52.413 0-72.408-18.457-18.457-47.499-19.877-67.584-4.259l-4.823 4.259-168.596 168.556-168.596-168.556c-18.457-18.457-47.499-19.877-67.584-4.259l-4.823 4.259c-18.457 18.457-19.877 47.499-4.259 67.584l4.259 4.823 204.8 204.8z" />
<glyph unicode="&#xe90d;" d="M364.089 960c37.703 0 68.267-30.564 68.267-68.267 0-35.010-26.354-63.864-60.305-67.807l-7.961-0.459h-197.215c-14.895 0-27.283-10.733-29.852-24.887l-0.489-5.454v-690.252c0-14.895 10.733-27.283 24.887-29.852l5.454-0.489h197.215c37.703 0 68.267-30.564 68.267-68.267 0-35.010-26.354-63.864-60.305-67.807l-7.961-0.459h-197.215c-88.476 0-160.869 68.855-166.519 155.902l-0.355 10.972v690.252c0 88.476 68.855 160.869 155.902 166.519l10.972 0.355h197.215z" />
<glyph unicode="&#xe90e;" glyph-name="dashboard" d="M0 391.111h455.111v568.889h-455.111v-568.889zM113.778 846.222h227.556v-341.333h-227.556v341.333zM568.889-64h455.111v568.889h-455.111v-568.889zM682.667 391.111h227.556v-341.333h-227.556v341.333zM568.889 960v-341.333h455.111v341.333h-455.111zM910.222 732.444h-227.556v113.778h227.556v-113.778zM0-64h455.111v341.333h-455.111v-341.333zM113.778 163.556h227.556v-113.778h-227.556v113.778z" />
<glyph unicode="&#xe90f;" glyph-name="my-tickets" horiz-adv-x="1280" d="M1152 960h-1024c-70.4 0-127.36-57.6-127.36-128v-256c70.4 0 127.36-57.6 127.36-128s-56.96-128-128-128v-256c0-70.4 57.6-128 128-128h1024c70.4 0 128 57.6 128 128v256c-70.4 0-128 57.6-128 128s57.6 128 128 128v256c0 70.4-57.6 128-128 128zM1152 669.44c-76.16-44.16-128-127.36-128-221.44s51.84-177.28 128-221.44v-162.56h-1024v162.56c76.16 44.16 128 127.36 128 221.44 0 94.72-51.2 177.28-127.36 221.44l-0.64 162.56h1024v-162.56zM452.48 192l187.52 120.32 187.52-120.32-56.96 215.040 172.16 140.8-222.080 13.44-80.64 206.72-81.28-206.080-222.080-13.44 172.16-140.8-56.32-215.68z" />
<glyph unicode="&#xe910;" glyph-name="company-ticket" horiz-adv-x="1280" d="M1280 576v256c0 71.040-57.6 128-128 128h-1024c-70.4 0-127.36-56.96-127.36-128v-256c70.4 0 127.36-57.6 127.36-128s-56.96-128-128-128v-256c0-70.4 57.6-128 128-128h1024c70.4 0 128 57.6 128 128v256c-70.4 0-128 57.6-128 128s57.6 128 128 128zM1152 669.44c-76.16-44.16-128-127.36-128-221.44s51.84-177.28 128-221.44v-162.56h-1024v162.56c76.16 44.16 128 127.36 128 221.44 0 94.72-51.2 177.28-127.36 221.44l-0.64 162.56h1024v-162.56zM576 256h128v-128h-128v128zM576 512h128v-128h-128v128zM576 768h128v-128h-128v128z" />
<glyph unicode="&#xe911;" glyph-name="arrow-down" horiz-adv-x="1755" d="M68.706 891.294c38.951 38.951 99.903 42.492 142.854 10.623l12.305-10.623 602.649-602.745 602.763 602.745c38.951 38.951 99.903 42.492 142.854 10.623l12.305-10.623c38.951-38.951 42.492-99.903 10.623-142.854l-10.623-12.305-757.865-757.865-757.865 757.865c-42.846 42.846-42.846 112.313 0 155.159z" />
<glyph unicode="&#xe912;" glyph-name="trash" horiz-adv-x="832" d="M492.8 960c81.296 0 147.841-63.158 153.246-143.084l0.354-10.516v-25.536l160-0.064v-128l-25.664 0.064 0.064-563.264c0-81.296-63.158-147.841-143.084-153.246l-10.516-0.354h-448c-81.296 0-147.841 63.158-153.246 143.084l-0.354 10.516-0.064 563.264-25.536-0.064v128l160 0.064v25.536c0 81.296 63.158 147.841 143.084 153.246l10.516 0.354h179.2zM652.736 652.864h-499.2l0.064-563.264c0-12.371 8.775-22.693 20.441-25.080l5.159-0.52h448c12.371 0 22.693 8.775 25.080 20.441l0.52 5.159-0.064 563.264zM377.6 492.8v-268.8h-128v268.8h128zM556.8 492.8v-268.8h-128v268.8h128zM492.8 832h-179.2c-12.371 0-22.693-8.775-25.080-20.441l-0.52-5.159v-25.536h230.4v25.536c0 12.371-8.775 22.693-20.441 25.080l-5.159 0.52z" />
<glyph unicode="&#xe913;" glyph-name="search" d="M462.222 960c255.278 0 462.222-206.944 462.222-462.222 0-104.544-34.708-200.983-93.229-278.42l174.040-174.103c24.994-24.994 24.994-65.516 0-90.51-23.071-23.071-59.374-24.846-84.48-5.324l-6.029 5.324-174.103 174.040c-77.437-58.522-173.876-93.229-278.42-93.229-255.278 0-462.222 206.944-462.222 462.222s206.944 462.222 462.222 462.222zM462.222 832c-184.586 0-334.222-149.636-334.222-334.222s149.636-334.222 334.222-334.222c90.242 0 172.131 35.765 232.265 93.894 1.059 1.552 2.355 2.969 3.725 4.339l4.339 3.725c58.129 60.134 93.894 142.023 93.894 232.265 0 184.586-149.636 334.222-334.222 334.222z" />
<glyph unicode="&#xe914;" d="M660.943 742.79c24.609 24.609 63.332 26.502 90.112 5.679l6.431-5.679 246.519-246.519c24.609-24.609 26.502-63.332 5.679-90.112l-5.679-6.431-246.519-246.519c-26.66-26.66-69.884-26.66-96.544 0-24.609 24.609-26.502 63.332-5.679 90.112l5.679 6.431 198.193 198.247-198.193 198.247c-24.609 24.609-26.502 63.332-5.679 90.112l5.679 6.431z" />
<glyph unicode="&#xe915;" d="M794.026 516.267c37.703 0 68.267-30.564 68.267-68.267 0-35.010-26.354-63.864-60.305-67.807l-7.961-0.459h-429.937c-37.703 0-68.267 30.564-68.267 68.267 0 35.010 26.354 63.864 60.305 67.807l7.961 0.459h429.937z" />
<glyph unicode="&#xe916;" glyph-name="print" horiz-adv-x="1092" d="M786.289 147.348l16.207-0.044 0.047-33.265c0.002-2.478 0.003-5.056 0.005-7.72l0.007-25.948-0.028-77.964c-0.007-36.73-29.621-66.406-65.81-66.406h-376.235c-36.19 0-66.304 29.309-66.304 66.039l0.038 96.231c0.094 22.54 0.34 40.331 0.437 46.546l0.040 2.384 2.871 0.016c0.921 0.005 2.051 0.011 3.373 0.018l10.101 0.047c2.022 0.008 4.201 0.017 6.521 0.025l15.463 0.046c2.812 0.007 5.729 0.013 8.734 0.017l438.030-0.017c2.314-0.002 4.488-0.004 6.503-0.006zM848.807 960c40.602 0 74.575-33.716 74.575-74.926v0-198.883h95.218c40.602 0 73.667-34.638 73.667-75.847v0-429.579c0-41.209-33.064-75.582-73.667-75.582v0h-95.218v166.957h-747.918v-166.957h-101.798c-40.602 0-73.667 34.373-73.667 75.585v0 429.577c0 41.209 33.064 75.847 73.667 75.847v0h101.798v198.883c0 41.209 32.314 74.926 72.917 74.926v0zM316.729 815.845c-0.061-0.031-0.283-0.114-0.618-0.089v0-191.895h464.444l-0.112 191.924z" />
<glyph unicode="&#xe917;" glyph-name="filter" horiz-adv-x="1446" d="M1289.935 879.755c44.233 0.135 80.2-35.613 80.349-79.846 0.111-41.073-30.703-75.020-70.522-79.768l-9.339-0.567-1206.074-3.682c-44.233-0.135-80.2 35.613-80.349 79.846-0.111 41.073 30.703 75.020 70.522 79.768l9.339 0.567 1206.074 3.682zM1077.789 559.396c44.233 0.217 80.266-35.465 80.483-79.698 0.201-41.073-30.551-75.077-70.36-79.898l-9.338-0.585-753.791-3.696c-44.233-0.217-80.266 35.465-80.483 79.698-0.201 41.073 30.551 75.077 70.36 79.898l9.338 0.585 753.791 3.696zM866.223 237.076c44.233-0.032 80.066-35.915 80.034-80.148-0.029-41.074-30.972-74.904-70.808-79.502l-9.341-0.532-301.518 0.215c-44.233 0.032-80.066 35.915-80.034 80.148 0.029 41.074 30.972 74.904 70.808 79.502l9.341 0.532 301.518-0.215z" />
<glyph unicode="&#xe918;" glyph-name="all-ticket" d="M698.182 773.818h-372.364c-77.119 0-139.636-62.517-139.636-139.636v-372.364c0-77.119 62.517-139.636 139.636-139.636h372.364c77.119 0 139.636 62.517 139.636 139.636v372.364c0 77.119-62.517 139.636-139.636 139.636zM325.818 680.727h372.364c25.706 0 46.545-20.839 46.545-46.545v-372.364c0-25.706-20.839-46.545-46.545-46.545h-372.364c-25.706 0-46.545 20.839-46.545 46.545v372.364c0 25.706 20.839 46.545 46.545 46.545zM898.339 920.749l-33.852-61.063c-22.209 12.312-47.197 18.859-73.215 18.859v69.818c37.937 0 74.563-9.596 107.066-27.615zM1012.038 739.363l-69.716-3.767c-1.397 25.859-9.311 50.483-22.857 72.037l59.112 37.152c19.818-31.532 31.419-67.632 33.461-105.422zM1012.364 546.813h-69.818v93.091h69.818v-93.091zM1012.364 360.631h-69.818v93.091h69.818v-93.091zM1012.364 174.449h-69.818v93.091h69.818v-93.091zM914.665-14.75l-39.007 57.905c21.239 14.307 38.592 33.816 50.283 56.581l62.106-31.896c-17.082-33.261-42.388-61.711-73.382-82.59zM709.627-52.364l-0.002 69.818 82.382 0.002c3.123 0.015 6.231 0.124 9.324 0.326l4.558-69.669c-4.5-0.294-9.018-0.453-13.715-0.475l-82.546-0.002zM523.444-52.364v69.818h93.091v-69.818h-93.091zM337.262-52.364v69.818h93.091v-69.818h-93.091zM138.096-31.136l29.914 63.085c20.036-9.501 41.988-14.494 64.717-14.494h11.444v-69.818h-11.444c-33.132 0-65.294 7.316-94.631 21.228zM13.027 143.819l69.382 7.793c2.879-25.631 12.223-49.791 27.030-70.565l-56.854-40.523c-21.65 30.374-35.344 65.782-39.557 103.296zM11.636 337.743h69.818v-93.091h-69.818v93.091zM11.636 523.925h69.818v-93.091h-69.818v93.091zM11.636 710.107h69.818v-93.091h-69.818v93.091zM98.038 902.613l42.565-55.342c-20.305-15.617-36.4-36.156-46.626-59.615l-64.001 27.901c14.954 34.303 38.437 64.271 68.062 87.056zM302.926 948.364l0.008-69.818-71.615-0.006c-6.26-0.057-12.463-0.493-18.589-1.3l-9.121 69.22c8.938 1.178 17.975 1.813 27.389 1.897l71.929 0.008zM489.112 948.364v-69.818h-93.091v69.818h93.091zM675.294 948.364v-69.818h-93.091v69.818h93.091zM791.273 948.364v-69.818h-22.888v69.818h22.888z" />
<glyph unicode="&#xe919;" glyph-name="calender" horiz-adv-x="939" d="M640 938.667c32.401 0 59.178-24.077 63.416-55.316l0.584-8.684v-21.333h21.333c101.62 0 184.802-78.947 191.557-178.855l0.443-13.145v-512c0-106.039-85.961-192-192-192v0h-512c-106.039 0-192 85.961-192 192v0 512c0 106.039 85.961 192 192 192v0h21.333v21.333c0 35.346 28.654 64 64 64 32.401 0 59.178-24.077 63.416-55.316l0.584-8.684v-21.333h213.333v21.333c0 35.346 28.654 64 64 64zM789.333 469.333h-640v-320c0-32.401 24.077-59.178 55.316-63.416l8.684-0.584h512c35.346 0 64 28.654 64 64v0 320zM234.667 725.333h-21.333c-35.346 0-64-28.654-64-64v0-64h640v64c0 32.401-24.077 59.178-55.316 63.416l-8.684 0.584h-21.333v-21.333c0-35.346-28.654-64-64-64-32.401 0-59.178 24.077-63.416 55.316l-0.584 8.684v21.333h-213.333v-21.333c0-35.346-28.654-64-64-64-32.401 0-59.178 24.077-63.416 55.316l-0.584 8.684v21.333z" />
<glyph unicode="&#xe91a;" glyph-name="open-ticket" horiz-adv-x="838" d="M512 960h-372.364c-77.119 0-139.636-62.517-139.636-139.636v-744.727c0-77.119 62.517-139.636 139.636-139.636h558.545c77.119 0 139.636 62.517 139.636 139.636v558.545c0 12.345-4.904 24.184-13.633 32.913l-279.273 279.273c-8.729 8.729-20.568 13.633-32.913 13.633zM492.684 866.909l252.044-252.044v-539.229c0-25.706-20.839-46.545-46.545-46.545h-558.545c-25.706 0-46.545 20.839-46.545 46.545v744.727c0 25.706 20.839 46.545 46.545 46.545h353.047zM512 960c23.87 0 43.544-17.968 46.232-41.117l0.313-5.428v-232.727h232.727c23.87 0 43.544-17.968 46.232-41.117l0.313-5.428c0-23.87-17.968-43.544-41.117-46.232l-5.428-0.313h-279.273c-23.87 0-43.544 17.968-46.232 41.117l-0.313 5.428v279.273c0 25.706 20.839 46.545 46.545 46.545zM605.091 448c25.706 0 46.545-20.839 46.545-46.545 0-23.87-17.968-43.544-41.117-46.232l-5.428-0.313h-372.364c-25.706 0-46.545 20.839-46.545 46.545 0 23.87 17.968 43.544 41.117 46.232l5.428 0.313h372.364zM605.091 261.818c25.706 0 46.545-20.839 46.545-46.545 0-23.87-17.968-43.544-41.117-46.232l-5.428-0.313h-372.364c-25.706 0-46.545 20.839-46.545 46.545 0 23.87 17.968 43.544 41.117 46.232l5.428 0.313h372.364z" />
<glyph unicode="&#xe91b;" glyph-name="close-ticket" horiz-adv-x="1229" d="M1177.6 960c28.277 0 51.2-22.923 51.2-51.2v0-256c0-28.277-22.923-51.2-51.2-51.2v0h-51.2v-614.4c0-26.257-19.765-47.898-45.229-50.856l-5.971-0.344h-921.6c-26.257 0-47.898 19.765-50.856 45.229l-0.344 5.971v614.4h-51.2c-26.257 0-47.898 19.765-50.856 45.229l-0.344 5.971v256c0 28.277 22.923 51.2 51.2 51.2v0zM1024 601.6h-819.2v-563.2h819.2v563.2zM1126.4 857.6h-1024v-153.6h1024v153.6z" />
<glyph unicode="&#xe91c;" glyph-name="left-chevron" horiz-adv-x="614" d="M582.212 896c27.266-27.266 29.744-69.932 7.436-99.998l-7.436-8.614-355.259-355.294 355.259-355.294c27.266-27.266 29.744-69.932 7.436-99.998l-7.436-8.614c-27.266-27.266-69.932-29.744-99.998-7.436l-8.614 7.436-463.906 463.906 463.906 463.906c29.992 29.992 78.619 29.992 108.612 0z" />
<glyph unicode="&#xe91d;" glyph-name="right-chevron" horiz-adv-x="717" d="M108.988 921.6c-27.266-27.266-29.744-69.932-7.436-99.998l7.436-8.614 355.259-355.294-355.259-355.294c-27.266-27.266-29.744-69.932-7.436-99.998l7.436-8.614c27.266-27.266 69.932-29.744 99.998-7.436l8.614 7.436 463.906 463.906-463.906 463.906c-29.992 29.992-78.619 29.992-108.612 0z" />
<glyph unicode="&#xe91e;" glyph-name="user" horiz-adv-x="960" d="M483.95 960c137.907 0 249.084-114.427 255.696-255.988l0.311-13.348v-101.342c0-147.639-113.792-269.322-256.007-269.322-137.895 0-249.071 114.422-255.682 255.974l-0.311 13.347v101.342c0 147.643 113.788 269.336 255.993 269.336zM483.95 802.86c-51.628 0-95.854-44.394-100.366-102.406l-0.379-9.79v-101.342c0-62.72 46.25-112.181 100.745-112.181 51.635 0 95.866 44.393 100.379 102.394l0.379 9.787v101.342c0 62.731-46.254 112.196-100.758 112.196zM234.204 362.006l-94.5-26.162c-93.199-27.142-139.68-86.621-139.68-158.373v-71.947c0-89.033 72.323-161.369 161.36-161.369h630.261c89.043 0 161.371 72.346 161.344 161.38v71.928c0 72.015-46.591 131.605-139.24 158.25l-90.296 25.246c-42.715 12.102-87.159-13.001-99.154-55.786-11.992-42.858 13.028-87.271 55.851-99.225l89.7-25.077 7.424-2.344 8.022-3.142c1.157-0.516 2.224-1.026 3.2-1.526l3.504-2.020 0.048-66.324-0.41-0.418-630.671 0.418-0.007 66.58 2.27 1.279c4.109 2.125 10.676 4.799 20.451 7.647l93.217 25.794c42.826 11.863 67.934 56.159 56.112 98.984-11.823 42.83-56.048 67.867-98.805 56.206z" />
<glyph unicode="&#xe91f;" glyph-name="lock" horiz-adv-x="960" d="M456 960c151.044 0 274.331-118.844 281.453-268.125l0.325-13.652 0.012-111.035c97.699-8.976 174.21-91.146 174.21-191.187v0-223.111c0-106.039-85.961-192-192-192v0h-528c-106.039 0-192 85.961-192 192v0 223.111c0 100.041 76.512 182.211 174.21 191.187l0.012 111.035c0 155.622 126.156 281.778 281.778 281.778zM720 440h-528c-35.346 0-64-28.654-64-64v0-223.111c0-35.346 28.654-64 64-64v0h528c35.346 0 64 28.654 64 64v0 223.111c0 35.346-28.654 64-64 64v0zM456 832c-81.39 0-148.012-63.231-153.423-143.249l-0.355-10.529-0.014-110.222h307.52l0.050 110.222c0 84.929-68.849 153.778-153.778 153.778z" />
<glyph unicode="&#xe920;" glyph-name="left-long-arrow" horiz-adv-x="1536" d="M487.178 912.863c25.055 18.59 60.61 16.525 83.332-6.197v0l6.197-7.178c18.59-25.055 16.525-60.61-6.197-83.332v0l-304.127-304.1 1141.618-0.057c35.346 0 64-28.654 64-64 0-32.401-24.077-59.178-55.316-63.416l-8.684-0.584-1168.242 0.057 330.751-330.724 6.197-7.178c18.59-25.055 16.525-60.61-6.197-83.332-24.994-24.994-65.516-24.994-90.51 0v0l-471.922 471.922 471.922 471.922z" />
<glyph unicode="&#xe921;" glyph-name="csv" horiz-adv-x="853" d="M566.336 897.807v-155.62c0-17.515 12.339-31.937 27.799-34.647l5.256-0.457h157.668v-85.333h-157.668c-62.618 0-113.763 49.724-118.092 111.887l-0.297 8.55v155.62h85.333zM799.726 699.641l-245.788 240.832h-448.457c-50.291 0-91.259-40.986-91.259-91.29v-777.968c0-50.304 40.968-91.29 91.259-91.29h602.954c50.313 0 91.291 40.976 91.291 91.29v628.425zM519.111 855.154l195.243-191.317 0.039-592.62c0-3.185-2.772-5.956-5.957-5.956h-602.954c-3.155 0-5.926 2.772-5.926 5.956v777.968c0 3.184 2.771 5.956 5.926 5.956l413.63 0.014zM290.279 497.953c15.709 0 28.444-12.735 28.444-28.444 0-13.964-10.062-25.578-23.332-27.986l-5.113-0.458h-58.348c-15.709 0-28.444 12.735-28.444 28.444 0 13.964 10.062 25.578 23.332 27.986l5.113 0.458h58.348zM404.553 497.953c15.709 0 28.444-12.735 28.444-28.444 0-13.964-10.062-25.578-23.332-27.986l-5.113-0.458h-53.505c-15.709 0-28.444 12.735-28.444 28.444 0 13.964 10.062 25.578 23.332 27.986l5.113 0.458h53.505zM521.248 497.953c15.709 0 28.444-12.735 28.444-28.444 0-13.964-10.062-25.578-23.332-27.986l-5.113-0.458h-53.505c-15.709 0-28.444 12.735-28.444 28.444 0 13.964 10.062 25.578 23.332 27.986l5.113 0.458h53.505zM312.95 152.898c-8.678-4.85-27.803-9.7-52.041-9.7-64.010 0-102.885 43.328-102.885 109.56 0 71.756 46.081 115.057 107.647 115.057 24.237 0 41.568-5.497 49.073-9.7l-8.079-31.688c-9.575 4.527-22.716 8.407-39.473 8.407-40.994 0-70.593-27.781-70.593-80.136 0-47.828 26.033-78.519 70.269-78.519 14.986 0 30.521 3.207 40.097 8.084l5.985-31.364zM343.536 189.737c11.944-7.437 29.898-13.904 48.749-13.904 23.614 0 36.805 11.964 36.805 29.748 0 16.491-10.199 26.164-35.907 36.188-33.189 12.934-54.41 32.011-54.41 63.349 0 35.541 27.504 62.675 71.166 62.675 21.819 0 37.977-5.147 48.425-10.967l-8.952-32.011c-7.181 4.203-21.22 10.347-40.072 10.347-23.34 0-33.514-13.554-33.514-26.164 0-16.814 11.67-24.574 38.6-35.891 34.985-14.2 52.041-33.278 52.041-64.615 0-34.921-24.537-65.289-76.577-65.289-21.22 0-43.363 6.467-54.41 13.58l8.054 32.954zM545.797 146.436l-65.182 217.8h40.072l27.529-98.863c7.755-27.484 14.338-53.002 19.724-79.516h0.598c5.386 25.868 12.543 52.355 20.622 78.869l29.324 99.509h39.149l-69.67-217.8h-42.166z" />
<glyph unicode="&#xe922;" glyph-name="excel" horiz-adv-x="1092" d="M865.142 645.237c18.851 0 34.133-15.282 34.133-34.133 0-16.757-12.075-30.693-27.998-33.583l-6.136-0.55h-63.539c-18.851 0-34.133 15.282-34.133 34.133 0 16.757 12.075 30.693 27.998 33.583l6.136 0.55h63.539zM865.142 486.389c18.851 0 34.133-15.282 34.133-34.133 0-16.757-12.075-30.693-27.998-33.583l-6.136-0.55h-63.539c-18.851 0-34.133 15.282-34.133 34.133 0 16.757 12.075 30.693 27.998 33.583l6.136 0.55h63.539zM865.142 327.542c18.851 0 34.133-15.282 34.133-34.133 0-16.757-12.075-30.693-27.998-33.583l-6.136-0.55h-63.539c-18.851 0-34.133 15.282-34.133 34.133 0 16.757 12.075 30.693 27.998 33.583l6.136 0.55h63.539zM497.861 665.368c18.317 21.542 50.63 24.157 72.172 5.84 19.584-16.652 23.525-44.87 10.318-66.048l-4.478-6.124-284.719-334.851c-18.317-21.542-50.63-24.157-72.172-5.84-19.584 16.652-23.525 44.87-10.318 66.048l4.478 6.124 284.719 334.851zM217.069 636.141c18.723 17.614 47.204 18.399 66.785 2.922l5.589-5.13 282.177-299.936c19.376-20.595 18.387-52.998-2.208-72.374-18.723-17.614-47.204-18.399-66.785-2.922l-5.589 5.13-282.177 299.936c-19.376 20.595-18.387 52.998 2.208 72.374zM679.987 942.328l-619.506-95.309c-24.977-3.843-43.415-25.334-43.415-50.605v-677.739c0-25.271 18.438-46.762 43.415-50.605l619.506-95.309c31.015-4.772 58.985 19.225 58.985 50.605v868.357c0 31.38-27.97 55.376-58.985 50.605zM636.518 832.068v-748.954l-517.052 79.531v589.892l517.052 79.531zM1000.162 815.846c25.921 0 47.342-19.262 50.733-44.252l0.467-6.948v-614.2c0-25.921-19.262-47.342-44.252-50.733l-6.948-0.467h-301.811c-28.277 0-51.2 22.923-51.2 51.2 0 25.921 19.262 47.342 44.252 50.733l6.948 0.467 250.555 0.048v511.795l-250.555-0.043c-25.921 0-47.342 19.262-50.733 44.252l-0.467 6.948c0 25.921 19.262 47.342 44.252 50.733l6.948 0.467h301.811z" />
<glyph unicode="&#xe923;" glyph-name="info" d="M512 942.933c-273.344 0-494.933-221.589-494.933-494.933s221.589-494.933 494.933-494.933c273.344 0 494.933 221.589 494.933 494.933s-221.589 494.933-494.933 494.933zM512 840.533c216.79 0 392.533-175.743 392.533-392.533s-175.743-392.533-392.533-392.533c-216.79 0-392.533 175.743-392.533 392.533s175.743 392.533 392.533 392.533zM334.575 598.11c29.825 84.784 116.452 135.696 205.036 120.502s153.293-92.064 153.159-181.865c0-59.549-34.979-106.188-89.36-142.441-29.385-19.59-58.186-32.39-78.77-39.252-26.826-8.942-55.821 5.556-64.763 32.382s5.556 55.821 32.382 64.763c12.696 4.232 33.815 13.618 54.35 27.308 28.82 19.213 43.761 39.134 43.761 57.315 0.059 39.946-28.7 74.11-68.071 80.863-36.558 6.271-72.367-12.792-87.909-45.717l-3.218-7.839c-9.384-26.675-38.614-40.692-65.289-31.308s-40.692 38.614-31.308 65.289zM512.444 277.333c28.277 0 51.2-22.923 51.2-51.2 0-25.921-19.262-47.342-44.252-50.733l-6.948-0.467c-28.721 0-51.644 22.923-51.644 51.2 0 25.921 19.262 47.342 44.252 50.733l7.391 0.467z" />
<glyph unicode="&#xe924;" glyph-name="camera" horiz-adv-x="1152" d="M715.636 960c21.399 0 41.381-10.694 53.251-28.499v0l73.992-111.085 152.029-0.052c83.289 0 151.438-64.818 156.757-146.762v0l0.334-10.329v-512c0-86.759-70.332-157.091-157.091-157.091v0h-837.818c-86.759 0-157.091 70.332-157.091 157.091v0 512c0 86.759 70.332 157.091 157.091 157.091v0l151.965 0.052 74.056 111.085c10.386 15.579 26.984 25.714 45.306 28.005v0l7.945 0.494zM681.344 832h-210.752l-74.068-111.137c-10.386-15.579-26.984-25.714-45.306-28.005v0l-7.945-0.494h-186.182c-16.066 0-29.091-13.024-29.091-29.091v0-512c0-16.066 13.024-29.091 29.091-29.091v0h837.818c16.066 0 29.091 13.024 29.091 29.091v0 512c0 16.066-13.024 29.091-29.091 29.091v0h-186.182c-21.399 0-41.381 10.694-53.251 28.499v0l-74.132 111.137zM576 622.545c106.039 0 192-85.961 192-192s-85.961-192-192-192c-106.039 0-192 85.961-192 192s85.961 192 192 192zM576 494.545c-35.346 0-64-28.654-64-64s28.654-64 64-64c35.346 0 64 28.654 64 64s-28.654 64-64 64z" />
</font>
</defs>
</svg>
