<svg width="10" height="16" viewBox="0 0 10 16" fill="none" xmlns="http://www.w3.org/2000/svg">
<path opacity="0.745675" fill-rule="evenodd" clip-rule="evenodd" d="M6.86434 13.8513C6.75772 13.8499 6.65262 13.8032 6.57395 13.7174L5.13189 12.1494L3.72442 13.6799C3.60945 13.8048 3.43366 13.8407 3.28152 13.7711C3.12815 13.7014 3.02706 13.5393 3.02507 13.3614L2.99114 7.21155L7.23246 7.26749L7.26639 13.4174C7.26838 13.5953 7.17088 13.7547 7.01902 13.8204C6.96922 13.8421 6.91684 13.852 6.86434 13.8513Z" fill="#E8980B"/>
<path fill-rule="evenodd" clip-rule="evenodd" d="M6.62029 10.0697C6.51753 10.1158 6.39855 10.1185 6.28863 10.0667L4.90162 9.41585L3.50127 10.0416C3.27913 10.1407 3.02752 10.0229 2.93863 9.77744L2.37719 8.23027L0.989375 7.57977C0.883554 7.53023 0.800795 7.4363 0.757844 7.31833C0.715054 7.2008 0.716188 7.06926 0.761698 6.95187L1.35467 5.41542L0.792826 3.86843C0.749875 3.75047 0.751573 3.61919 0.796681 3.50198C0.84195 3.38521 0.926953 3.29294 1.03292 3.24543L1.03333 3.24525L2.43368 2.61951L3.02689 1.08244C3.12062 0.839738 3.37439 0.724938 3.5948 0.828866L4.98141 1.4799L6.38216 0.853984C6.48853 0.806295 6.60744 0.807152 6.71343 0.85714C6.81868 0.90642 6.90184 1.00017 6.9448 1.11814L7.50607 2.66487L8.89381 3.31643C9.11293 3.41938 9.21514 3.70011 9.12133 3.94388L8.52876 5.48015L9.0902 7.02732C9.17893 7.27231 9.07167 7.55099 8.8501 7.65033L8.8497 7.65051L7.44935 8.27624L6.85654 9.81314C6.80999 9.93409 6.72305 10.0236 6.62029 10.0697Z" fill="#FFC868"/>
</svg>
