<svg width="77" height="48" viewBox="0 0 77 48" fill="none" xmlns="http://www.w3.org/2000/svg">
<path fill-rule="evenodd" clip-rule="evenodd" d="M33.3272 27.3838L38.0984 31.117L31.5182 38.9765L12.9866 24.4677L36.9859 15.8935C37.3271 15.7646 37.6699 15.5766 38.0065 15.3265C38.3462 15.0732 38.65 14.7889 38.9149 14.4782C39.5319 13.7356 39.789 13.0039 39.6846 12.283C39.5849 11.5544 39.119 10.8739 38.3088 10.2354C37.5655 9.65435 36.7755 9.40889 35.931 9.49433C35.0849 9.58133 34.3697 9.96817 33.7962 10.6533C33.4612 11.0588 33.2571 11.4612 33.1698 11.8635C33.0966 12.269 33.1309 12.7211 33.2945 13.2229L24.7244 16.3751C23.7615 14.27 23.4078 12.2457 23.6664 10.3006C23.936 8.36178 24.807 6.49904 26.3029 4.71709C28.6339 1.93464 31.5665 0.38417 35.1051 0.0594728C38.6469 -0.266778 41.9191 0.74926 44.928 3.10759C47.7982 5.3525 49.4421 8.1303 49.8674 11.4285C50.2944 14.7345 49.4265 17.6755 47.2606 20.2606C46.5142 21.1477 45.6307 21.9229 44.6039 22.5863C43.5755 23.2419 42.0126 23.983 39.9028 24.8079L33.3272 27.3838Z" fill="#201D1E"/>
<path fill-rule="evenodd" clip-rule="evenodd" d="M51.9606 47.2358H27.2087L39.7958 31.9424L51.9606 47.2358Z" fill="#891F24"/>
<path fill-rule="evenodd" clip-rule="evenodd" d="M64.8002 33.328L74.9207 38.7826L74.863 38.8836C72.6924 42.6883 69.5433 45.1321 65.3939 46.232C61.2615 47.3289 57.2445 46.8317 53.3662 44.7453C51.9856 44.0011 50.764 43.0892 49.6951 42.0141C48.6308 40.939 47.7333 39.7257 47.0119 38.3787C45.784 36.0313 45.1841 33.5797 45.2153 31.0365C45.248 28.4964 45.9118 26.0993 47.1942 23.845C48.2101 22.0662 49.5424 20.5437 51.1831 19.2837C52.8224 18.0222 54.6564 17.1165 56.6851 16.5665C58.7575 15.9731 60.8299 15.7882 62.9008 16.0103C64.9747 16.2263 66.9193 16.826 68.7331 17.8047C72.1471 19.641 74.5389 22.2635 75.9241 25.6767C77.3016 29.0914 77.3592 32.573 76.08 36.1058L65.9891 30.673C65.7834 29.8776 65.4827 29.2157 65.0978 28.6704C64.7145 28.1344 64.2065 27.6963 63.5645 27.3499C62.4349 26.7424 61.2958 26.584 60.1287 26.8729C58.9585 27.1666 58.0844 27.8222 57.4985 28.8506C56.9282 29.8496 56.8129 30.9107 57.1448 32.0432C57.4767 33.1727 58.1607 34.0147 59.1829 34.5662C60.1957 35.1053 61.1634 35.2747 62.0889 35.0743C63.0176 34.8676 63.9245 34.285 64.8002 33.328Z" fill="#46B0E6"/>
<path fill-rule="evenodd" clip-rule="evenodd" d="M0.0290381 26.1642C0.153694 27.3061 0.688154 28.2429 1.62619 28.9761C2.54085 29.6892 3.58639 29.9813 4.75971 29.8648C5.93771 29.7514 6.89132 29.2434 7.62835 28.364C8.38563 27.4552 8.70973 26.4361 8.58819 25.2957C8.47444 24.157 7.95089 23.2295 7.04091 22.5148C6.09664 21.78 5.0433 21.4755 3.85752 21.5951C2.67329 21.7132 1.6963 22.2243 0.943697 23.1316C0.201998 24.0156 -0.100292 25.0239 0.0290381 26.1642ZM25.2861 47.7282L6.54199 32.4733L11.7841 25.9225L30.5283 41.1806L25.2861 47.7282Z" fill="#EF9829"/>
</svg>
